<!DOCTYPE svg PUBLIC "-//W3C//DTD SVG 1.1//EN" "http://www.w3.org/Graphics/SVG/1.1/DTD/svg11.dtd">

<!-- Uploaded to: SVG Repo, www.svgrepo.com, Transformed by: SVG Repo Mixer Tools -->
<svg width="800px" height="800px" viewBox="0 0 24 24" fill="none" xmlns="http://www.w3.org/2000/svg" stroke="#000000" >

<g id="SVGRepo_bgCarrier" stroke-width="0"/>

<g id="SVGRepo_tracerCarrier" stroke-linecap="round" stroke-linejoin="round"/>

<g id="SVGRepo_iconCarrier"> <path d="M20.232 10.5257C19.6468 7.40452 19.3542 5.84393 18.2433 4.92196C17.1324 4 15.5446 4 12.369 4H11.6479C8.47228 4 6.8845 4 5.7736 4.92196C4.66271 5.84393 4.37009 7.40452 3.78487 10.5257C2.96195 14.9146 2.55049 17.1091 3.75011 18.5545C4.94973 20 7.18244 20 11.6478 20H12.369C16.8344 20 19.0672 20 20.2668 18.5545C20.9628 17.7159 21.1165 16.6252 20.9621 15" stroke="#fff" stroke-width="1.5" stroke-linecap="round"/> <path d="M9.1709 8C9.58273 9.16519 10.694 10 12.0002 10C13.3064 10 14.4177 9.16519 14.8295 8" stroke="#fff" stroke-width="1.5" stroke-linecap="round"/> </g>

</svg>